<?xml version="1.0" standalone="no"?>
<!DOCTYPE svg PUBLIC "-//W3C//DTD SVG 20010904//EN"
 "http://www.w3.org/TR/2001/REC-SVG-20010904/DTD/svg10.dtd">
<svg version="1.0" xmlns="http://www.w3.org/2000/svg"
 width="512.000000pt" height="512.000000pt" viewBox="0 0 512.000000 512.000000"
 preserveAspectRatio="xMidYMid meet">

<g transform="translate(0.000000,512.000000) scale(0.100000,-0.100000)"
fill="#ffffff" stroke="none">
<path d="M2415 5100 c-30 -33 -36 -112 -25 -315 12 -211 28 -398 36 -418 3 -9
-11 -20 -42 -32 -60 -23 -119 -82 -152 -154 -23 -48 -27 -69 -26 -151 0 -55 7
-119 16 -153 l16 -58 -42 -43 c-54 -54 -76 -116 -76 -216 l0 -77 -58 -41
c-147 -103 -301 -321 -382 -543 -74 -200 -92 -449 -46 -632 73 -288 289 -496
624 -601 126 -39 240 -56 386 -56 232 0 392 59 538 198 98 94 165 191 243 355
126 265 172 481 145 687 -42 327 -271 587 -620 705 l-65 22 -7 63 c-10 90 -43
164 -91 205 -39 33 -40 37 -54 132 -32 228 -102 353 -206 370 l-33 5 10 81
c13 121 -9 633 -29 664 -19 28 -36 29 -60 3z m118 -890 c34 -27 64 -109 77
-212 5 -45 10 -83 10 -85 0 -1 -21 -4 -47 -8 -99 -12 -189 -28 -224 -41 l-37
-12 -7 64 c-8 82 10 193 39 236 49 73 136 100 189 58z m163 -449 c22 -13 37
-34 48 -67 31 -93 37 -89 -131 -90 -154 -1 -241 -14 -344 -53 -29 -11 -54 -19
-56 -18 -6 6 18 74 37 104 49 81 192 139 350 142 48 1 73 -4 96 -18z m67 -292
c312 -63 566 -264 654 -515 24 -70 27 -94 28 -209 0 -138 -7 -179 -57 -335
-63 -195 -155 -365 -256 -472 -81 -86 -145 -129 -249 -165 -73 -26 -89 -28
-238 -28 -140 1 -173 4 -265 27 -206 52 -325 114 -441 229 -63 62 -85 93 -122
170 -64 132 -81 219 -75 383 8 196 54 352 155 518 85 141 243 297 362 358 117
59 325 76 504 39z"/>
<path d="M808 4339 c-17 -9 -18 -46 -18 -547 1 -487 8 -736 26 -893 6 -55 6
-56 -21 -63 -37 -9 -86 -44 -119 -83 -70 -83 -91 -205 -61 -356 l17 -87 -39
-39 c-49 -47 -72 -109 -80 -218 l-6 -82 -41 -27 c-57 -38 -151 -129 -197 -191
-22 -29 -39 -55 -39 -58 0 -4 -13 -25 -29 -48 -106 -155 -184 -388 -197 -592
-33 -501 290 -853 861 -942 127 -19 298 -12 410 17 223 59 412 239 541 516
109 233 144 360 151 554 5 127 3 156 -16 230 -71 287 -281 504 -592 615 l-76
27 -6 58 c-10 91 -42 164 -91 207 -40 36 -44 43 -51 103 -10 98 -42 224 -69
278 -30 60 -83 107 -135 123 l-40 12 5 116 c3 64 7 125 9 136 2 11 0 164 -5
340 -5 176 -12 445 -16 598 -5 223 -9 281 -21 292 -17 17 -31 18 -55 4z m120
-1634 c44 -37 70 -117 85 -261 l5 -41 -77 -6 c-42 -4 -110 -15 -151 -26 -41
-10 -77 -17 -80 -15 -11 11 -11 141 0 197 14 76 48 130 97 156 51 27 86 26
121 -4z m168 -450 c28 -18 48 -58 58 -117 l7 -37 -138 0 c-145 0 -253 -17
-351 -53 -29 -11 -56 -18 -58 -15 -14 14 24 96 62 133 88 89 340 142 420 89z
m69 -291 c183 -35 345 -122 481 -258 141 -141 194 -268 195 -466 1 -172 -51
-363 -156 -573 -66 -129 -111 -192 -198 -274 -121 -113 -247 -157 -447 -156
-236 1 -454 67 -626 189 -306 216 -371 662 -157 1078 90 177 252 344 408 424
114 57 311 71 500 36z"/>
<path d="M4081 4242 c-20 -16 -21 -35 -37 -487 -19 -513 -23 -896 -11 -962 6
-37 5 -43 -11 -43 -25 0 -92 -37 -128 -72 -17 -16 -44 -54 -59 -85 -35 -67
-44 -177 -25 -288 l13 -74 -45 -44 c-54 -52 -77 -112 -85 -217 l-6 -75 -54
-34 c-169 -104 -367 -383 -439 -617 -56 -184 -70 -386 -39 -539 71 -340 348
-582 776 -676 134 -30 347 -32 454 -6 237 59 424 235 582 550 138 276 184 556
128 772 -23 85 -97 229 -156 303 -91 113 -262 232 -420 291 l-56 21 -6 68 c-9
97 -32 156 -83 208 -38 38 -44 50 -44 87 -1 68 -18 177 -41 249 -31 99 -107
178 -170 178 -19 0 -20 4 -15 33 18 99 26 282 36 825 7 332 9 609 6 617 -10
27 -43 36 -65 17z m61 -1643 c33 -35 55 -108 64 -215 l6 -81 -103 -6 c-57 -4
-128 -13 -156 -21 l-53 -14 0 87 c0 152 45 244 135 276 49 17 72 12 107 -26z
m111 -433 c18 -7 40 -22 50 -33 17 -20 46 -128 36 -138 -3 -2 -45 0 -93 6
-103 13 -260 -1 -375 -32 -40 -11 -76 -18 -78 -15 -3 3 1 21 7 42 17 49 86
117 141 138 111 42 254 57 312 32z m82 -306 c235 -60 425 -186 547 -364 139
-201 143 -450 14 -769 -125 -308 -286 -492 -487 -560 -207 -70 -552 -18 -789
120 -87 51 -207 167 -253 245 -110 185 -127 451 -46 699 51 154 130 286 247
410 127 135 264 219 392 238 96 15 281 5 375 -19z"/>
</g>
</svg>
